PathFileType	4	(X/Y/Z)	Patient4_TMGait_0pt7_02_right_10.trc.trc
DataRate	CameraRate	NumFrames	NumMarkers	Units	OrigDataRate	OrigDataStartFrame	OrigNumFrames
84.337349397590	84.337349397590	4	33	mm	84.337349397590	36	       141
Frame#	Time	Sacral			L.Shoulder			Chest			R.Shoulder			Neck			R.ASIS			L.ASIS			R.Thigh.Superior			R.Thigh.Lateral			R.Thigh.Inferior			R.Patella			L.Thigh.Superior			L.Thigh.Lateral			L.Thigh.Inferior			L.Patella			L.Shank.Superior			L.Shank.Lateral			L.Shank.Inferior			R.Shank.Superior			R.Shank.Lateral			R.Shank.Inferior			R.Heel			R.Midfoot.Superior			R.Midfoot.Lateral			R.Toe			L.Heel			L.Midfoot.Lateral			L.Midfoot.Superior			L.Toe			L.Elbow			L.Wrist			R.Elbow			R.Wrist			
		X1	Y1	Z1	X2	Y2	Z2	X3	Y3	Z3	X4	Y4	Z4	X5	Y5	Z5	X6	Y6	Z6	X7	Y7	Z7	X8	Y8	Z8	X9	Y9	Z9	X10	Y10	Z10	X11	Y11	Z11	X12	Y12	Z12	X13	Y13	Z13	X14	Y14	Z14	X15	Y15	Z15	X16	Y16	Z16	X17	Y17	Z17	X18	Y18	Z18	X19	Y19	Z19	X20	Y20	Z20	X21	Y21	Z21	X22	Y22	Z22	X23	Y23	Z23	X24	Y24	Z24	X25	Y25	Z25	X26	Y26	Z26	X27	Y27	Z27	X28	Y28	Z28	X29	Y29	Z29	X30	Y30	Z30	X31	Y31	Z31	X32	Y32	Z32	X33	Y33	Z33	

36	10.885000000000	800.820072973686	998.076312787876	487.558417646319	998.628940421793	1419.636782712259	298.058597843521	1098.732956476913	1345.239011776430	458.977126303174	1019.194687690660	1430.974427270111	630.105048360276	1005.724427522654	1480.531203024855	449.668076233053	1029.198069387368	929.517130111296	604.021367516462	1006.714220897337	950.145275369270	324.507832174168	1098.650535013019	750.700106809882	578.214158051971	1034.571749607595	631.282014436998	636.936770178174	1124.896860559918	591.613803493610	561.999154917913	1142.592488437962	500.705444543653	570.987432131786	1038.395509920853	728.910135439779	347.818645829252	939.024143631735	622.000331875181	283.987637278510	1020.071090498190	530.109612997858	337.461091110748	1006.450048984553	446.558110277098	334.840078790175	937.188348505849	391.973651101355	330.247025717078	795.839083299204	349.169155839527	283.382144925748	782.941070238498	221.028174491089	340.665286193436	1116.613452965665	409.388054900106	575.135474501612	1048.186614304350	302.261905511136	634.268281638598	1096.573083853823	209.171680738031	573.186193392339	969.712342100449	43.398334132384	540.895011149051	1141.208607222058	98.412404432494	579.390234000634	1051.937462080203	37.540119822077	616.121818110615	1260.350812959613	44.328977021297	608.671145551132	593.903669381825	148.892157117540	380.414730093534	653.546493475156	103.511286182229	302.712495523654	756.278728359216	120.723515514767	323.382333896496	841.919723112507	31.574734470030	301.848919624363	978.101865717711	1077.973683344141	166.756918240982	1230.263229477709	1046.471447928259	188.007329126212	864.436584094901	1131.987531899154	759.200547403437	824.007348894979	872.856725595824	773.758183187172	
37	10.896857142857	800.999979679824	999.726052545654	491.180084473797	998.632563774993	1420.585809350974	300.168554540640	1099.736362513887	1346.256237303179	460.614510366953	1021.332576803029	1432.141438768197	632.072646128510	1006.737442440865	1481.574296177698	451.669763582893	1029.838456023231	930.802604634460	606.684627246972	1006.450142857066	951.064406771059	327.370246416921	1097.384509438007	749.732455929379	582.062781173325	1030.996041538577	631.131416272366	639.025767076075	1120.993200415697	590.714221141830	563.959087724243	1137.512702534329	499.814143680839	572.091440024140	1043.305992056899	731.751208931264	351.137586328353	948.903514125381	622.367323942089	286.040447168646	1032.542095794393	532.377094311713	340.166427575780	1020.140415043617	447.553146076692	336.815418487675	948.880174922995	393.274049936433	331.873757765104	806.116474917603	355.858068851120	284.454576814706	788.473923684074	228.041023020898	340.981287083693	1110.881060939376	408.860468478240	576.180718128489	1041.900301522489	302.057067015363	635.065688562578	1089.475651839147	208.850096039440	573.617950151400	961.603200083252	43.363873604545	541.098456490067	1133.174562615370	98.664592884916	579.739201697322	1043.782945305649	37.512647264704	616.321172564014	1252.198819791550	44.186335765377	609.005750026387	596.703828644759	166.310477953767	379.924772926720	653.634220070919	116.829692073889	302.446751650377	757.417667607484	127.128877843094	323.339952009995	836.153746683754	30.756071204572	302.153107623758	970.347930314580	1077.746655745085	172.304158299679	1221.440188469696	1033.890472134062	190.972398999241	870.878696016259	1130.035272770387	761.098246814265	837.701747387156	869.653660144957	773.143297659207	
38	10.908714285714	800.915283945373	1001.329585792414	494.707468150896	998.248398489078	1421.422620772550	302.148615033358	1100.554132515112	1347.143218659955	462.014436929643	1023.472536527058	1433.159959646382	633.891928583787	1007.552391341265	1482.519507262795	453.549592405303	1030.297717350983	931.942948623680	609.086601062049	1006.149100362722	951.915215469668	330.259124055026	1095.817983588740	748.664863860044	585.530644585473	1027.265063888674	630.984169491239	640.943533608683	1116.746786616537	589.794346865080	565.584639799619	1132.062495339599	498.927933680622	572.947684706663	1048.012639608237	734.926114862360	354.550959699711	958.840924864080	623.179114417306	288.121861465803	1044.834867722060	535.285521019277	343.232496228534	1033.888208229520	449.261669194605	339.310963562008	960.935043621432	395.093032585461	333.854506585044	817.111620767984	362.620485052955	285.668192866656	795.014163499600	235.235375212964	341.589799079530	1104.845654689645	408.344387579736	577.047882585482	1035.400511559356	301.842050034366	635.755970763763	1082.248672414550	208.547962563882	573.952519924939	953.444061815407	43.335955801192	541.259735213191	1125.089518936648	98.807262766651	579.998224684825	1035.590721718112	37.473534395482	616.471052267674	1244.019416621944	43.972220406731	609.236213591573	601.069256423888	183.212516416514	379.525979361721	655.454066742715	130.146286539477	302.283754432557	759.927153493704	133.968142093417	323.612504600328	832.051044130960	30.350843877930	302.651322326901	962.801399442381	1077.551502206568	177.782808667377	1211.908023173539	1020.049165663170	193.887436357077	877.636086058023	1127.907876664307	763.039481317700	852.596727271648	866.407243048269	772.698898092413	
39	10.920571428571	800.584350451725	1002.880796334795	498.117991686278	997.519062953400	1422.167811533771	304.001041015852	1101.176688940177	1347.886559777807	463.179135879220	1025.614212809991	1434.025846569614	635.563149521994	1008.200559686624	1483.380344003763	455.311878926942	1030.568985027719	932.961423004272	611.224707918352	1005.741047609812	952.698008871575	333.129205055685	1093.995718518917	747.601408140807	588.463430810304	1023.517201484589	630.901729490653	642.688643808449	1112.262518744985	588.904691076779	566.859972072267	1126.338518257055	498.080828194219	573.586409129650	1052.426448026943	738.465610461719	358.022398933237	968.659499002720	624.505699227259	290.222187633276	1056.792440524723	538.873165048431	346.551835822284	1047.553496654800	451.729884441796	342.176149810860	973.233980309197	397.455166195203	336.095357437804	828.662161759978	369.301836488660	287.013266428121	802.601929232243	242.363840697108	342.453922004490	1098.595800804081	407.861333638550	577.757406185705	1028.754162922592	301.652803064174	636.378273129570	1074.923523256343	208.278316815304	574.208269851194	945.224212643695	43.326671937950	541.399837533426	1116.937305046423	98.840949756799	580.184607870746	1027.350944541879	37.434525588696	616.593004902958	1235.803097329527	43.709391071916	609.387814910789	607.005825950087	198.860205995498	379.231595396552	659.186133159948	142.821414690399	302.243298770400	764.030513750584	140.941329427188	324.172653313971	830.193336893356	30.492476247139	303.365950787477	955.561731750472	1077.372399782262	183.184034255411	1201.528490238909	1005.013951430119	196.735604642077	884.714530165284	1125.617757142346	764.996590258693	868.646149804870	863.218788795982	772.394201291099	
